<svg xmlns="http://www.w3.org/2000/svg" xmlns:xlink="http://www.w3.org/1999/xlink" version="1.1" x="0px" y="0px" viewBox="0 0 100 125" style="enable-background:new 0 0 100 100;" xml:space="preserve"><path d="M24.2,61.2c-2.3,0-4.5-1.3-6.3-3.7c-1.7-2.2-2.9-5.3-3.4-8.6c-1.1-7.6,1.8-14.1,6.6-14.8c0.3,0,0.6-0.1,0.8-0.1  c2.3,0,4.5,1.3,6.3,3.7c1.7,2.2,2.9,5.3,3.4,8.6c1.1,7.6-1.8,14.1-6.6,14.8C24.8,61.2,24.5,61.2,24.2,61.2z M21.9,36.8  c-0.1,0-0.3,0-0.4,0c-3.2,0.5-5.1,5.8-4.2,11.6c0.8,5.5,3.9,10,7,10c0.1,0,0.3,0,0.4,0c3.2-0.5,5.1-5.8,4.2-11.6  C28.1,41.3,24.9,36.8,21.9,36.8z M60.4,46.3c-0.3,0-0.7,0-1-0.1c-2.8-0.4-5.1-2.5-6.5-5.9c-1.3-3.2-1.7-7.1-1-11.1  c0.6-3.8,2-7.3,4-9.9c2.1-2.7,4.7-4.2,7.3-4.2c0.3,0,0.7,0,1,0.1c2.8,0.4,5.1,2.5,6.5,5.9c1.3,3.2,1.7,7.1,1,11.1  C70.4,40.2,65.6,46.3,60.4,46.3z M63.2,17.8c-1.7,0-3.5,1.1-5.1,3.2c-1.7,2.2-2.9,5.3-3.4,8.6c-1.1,6.9,1.3,13.3,5.2,13.9  c1.9,0.3,3.9-0.8,5.7-3.1c1.7-2.2,2.9-5.3,3.4-8.6c0.5-3.5,0.2-7-0.9-9.7c-1-2.5-2.5-4-4.3-4.2C63.6,17.8,63.4,17.8,63.2,17.8z   M41.9,46.2c-2.6,0-5.2-1.8-7.3-5.1c-1.9-3.1-3.3-7.2-3.8-11.6c-0.6-4.6-0.2-9.1,1-12.6c1.4-3.8,3.6-6.1,6.3-6.4c0.2,0,0.5,0,0.7,0  c2.6,0,5.2,1.8,7.3,5.1c1.9,3.1,3.3,7.2,3.8,11.6c0.6,4.6,0.2,9.1-1,12.6c-1.4,3.8-3.6,6.1-6.4,6.4C42.3,46.2,42.1,46.2,41.9,46.2z   M38.8,13.3c-0.1,0-0.2,0-0.4,0c-1.6,0.2-3.1,1.9-4.1,4.6C33.3,21,33,25,33.5,29.2c0.5,4,1.7,7.7,3.4,10.4c1.5,2.4,3.3,3.8,4.9,3.8  c0.1,0,0.2,0,0.4,0c1.6-0.2,3.1-1.9,4.1-4.6c1.1-3.1,1.4-7.1,0.9-11.3c-0.5-4-1.7-7.7-3.4-10.4C42.3,14.7,40.5,13.3,38.8,13.3z   M75.2,63.2c-0.5,0-0.9-0.1-1.4-0.2c-2.4-0.6-4.2-2.5-5.2-5.4c-0.9-2.7-1-5.9-0.2-9.2c1.5-6.2,5.7-10.7,10-10.7  c0.5,0,0.9,0.1,1.4,0.2c2.4,0.6,4.2,2.5,5.2,5.4c0.9,2.7,1,5.9,0.2,9.2C83.8,58.7,79.6,63.2,75.2,63.2z M78.4,40.6  c-3,0-6.2,3.8-7.3,8.6c-1.3,5.3,0.3,10.5,3.4,11.2c0.2,0.1,0.5,0.1,0.8,0.1c3,0,6.2-3.8,7.3-8.6c1.3-5.3-0.3-10.5-3.4-11.2  C78.9,40.6,78.6,40.6,78.4,40.6z M35,89.5c-5.2,0-8.9-1.4-10.9-4.1c-2.2-3.1-1.9-7.7,0.9-13.3c2.4-4.7,6.7-10.1,11.4-14.3  c4.9-4.4,9.6-7,12.9-7c0,0,0.1,0,0.1,0c3.8,0.1,8,3,12.7,8.8c3.2,4,5.5,7.8,5.8,8.3c0.3,0.4,2.1,3.3,3.5,6.8c2.1,5.3,2,9.3-0.1,11.9  c-1.6,1.9-4.4,2.9-8.4,2.9c-5.5,0-11.6-1.8-13.2-2.2C47.1,87.8,40.7,89.5,35,89.5z M49.3,53.6c-2.5,0-6.7,2.4-11,6.3  c-4.5,4-8.5,9.1-10.8,13.5c-2.3,4.5-2.7,8.2-1.2,10.4c1.4,2,4.3,2.9,8.6,2.9c5.7,0,12.2-1.8,14.4-2.4l0.4-0.1l0.4,0.1  c0.1,0,7,2.2,12.8,2.2c3.1,0,5.3-0.6,6.3-1.9c1.8-2.2,0.8-6.2-0.3-9.1c-1.3-3.4-3.2-6.3-3.3-6.3l-0.1-0.1  C63.1,65,55.3,53.7,49.3,53.6C49.4,53.6,49.3,53.6,49.3,53.6z"/><text x="0" y="115" fill="#000000" font-size="5px" font-weight="bold" font-family="'Helvetica Neue', Helvetica, Arial-Unicode, Arial, Sans-serif">Created by n.o.o.m.</text><text x="0" y="120" fill="#000000" font-size="5px" font-weight="bold" font-family="'Helvetica Neue', Helvetica, Arial-Unicode, Arial, Sans-serif">from the Noun Project</text></svg>